<?xml version="1.0" encoding="UTF-8" standalone="no"?>
<svg
   xmlns:dc="http://purl.org/dc/elements/1.1/"
   xmlns:cc="http://creativecommons.org/ns#"
   xmlns:rdf="http://www.w3.org/1999/02/22-rdf-syntax-ns#"
   xmlns:svg="http://www.w3.org/2000/svg"
   xmlns="http://www.w3.org/2000/svg"
   xmlns:sodipodi="http://sodipodi.sourceforge.net/DTD/sodipodi-0.dtd"
   xmlns:inkscape="http://www.inkscape.org/namespaces/inkscape"
   width="118.53333mm"
   height="16.93931mm"
   viewBox="0 0 118.53333 16.93931"
   version="1.1"
   id="svg3556"
   inkscape:version="1.0.1 (3bc2e813f5, 2020-09-07)"
   sodipodi:docname="background.svg">
  <defs
     id="defs3550" />
  <sodipodi:namedview
     id="base"
     pagecolor="#ffffff"
     bordercolor="#666666"
     borderopacity="1.0"
     inkscape:pageopacity="0.0"
     inkscape:pageshadow="2"
     inkscape:zoom="1.4142136"
     inkscape:cx="272.53119"
     inkscape:cy="218.75415"
     inkscape:document-units="mm"
     inkscape:current-layer="layer1"
     inkscape:document-rotation="0"
     showgrid="false"
     inkscape:snap-page="true"
     inkscape:snap-bbox="true"
     inkscape:bbox-paths="true"
     inkscape:window-width="1920"
     inkscape:window-height="1017"
     inkscape:window-x="-8"
     inkscape:window-y="-8"
     inkscape:window-maximized="1"
     inkscape:snap-global="true"
     fit-margin-top="0"
     fit-margin-left="0"
     fit-margin-right="0"
     fit-margin-bottom="0" />
  <metadata
     id="metadata3553">
    <rdf:RDF>
      <cc:Work
         rdf:about="">
        <dc:format>image/svg+xml</dc:format>
        <dc:type
           rdf:resource="http://purl.org/dc/dcmitype/StillImage" />
        <dc:title></dc:title>
      </cc:Work>
    </rdf:RDF>
  </metadata>
  <g
     inkscape:label="Calque 1"
     inkscape:groupmode="layer"
     id="layer1">
    <g
       id="g5429"
       transform="scale(0.84666667)">
      <rect
         style="fill:#c87137;stroke-width:0.0398602;stroke-linecap:round;stroke-linejoin:round;paint-order:fill markers stroke;stop-color:#000000"
         id="rect4119"
         width="20"
         height="20"
         x="0"
         y="0"
         rx="1.7020687e-17"
         ry="1.7020687e-17" />
      <path
         id="rect5272"
         style="fill:#00a300;fill-opacity:1;stroke-width:0.0628947;stroke-linecap:round;stroke-linejoin:round;paint-order:fill markers stroke;stop-color:#000000"
         d="m 0,0 h 20 v 0 10 0 c 0,0 -1.384089,0.559595 -2.108505,0.532671 C 16.406237,10.47747 15.14633,9.1874085 13.661457,9.1226587 11.955628,9.0482739 10.386488,10.277574 8.6794119,10.313336 6.9345876,10.349889 5.2859059,9.3110233 3.5406988,9.3106604 2.338306,9.3104104 0,10 0,10 v 0 z"
         sodipodi:nodetypes="cccccaaaaccc" />
      <rect
         style="fill:#b16431;fill-opacity:1;stroke-width:0.0649999;stroke-linecap:round;stroke-linejoin:round;paint-order:fill markers stroke;stop-color:#000000"
         id="rect5275"
         width="2.2246869"
         height="2.2246869"
         x="3.697367"
         y="11.562104"
         rx="0.40000001"
         ry="0.40000001" />
      <rect
         style="fill:#b16431;fill-opacity:1;stroke-width:0.0869717;stroke-linecap:round;stroke-linejoin:round;paint-order:fill markers stroke;stop-color:#000000"
         id="rect5277"
         width="2.9766936"
         height="2.9766936"
         x="11.938108"
         y="14.883468"
         rx="0.53521127"
         ry="0.53521127" />
      <rect
         style="fill:#b16431;fill-opacity:1;stroke-width:0.0283802;stroke-linecap:round;stroke-linejoin:round;paint-order:fill markers stroke;stop-color:#000000"
         id="rect5279"
         width="0.97134215"
         height="0.97134215"
         x="14.194129"
         y="11.374103"
         rx="0.17464788"
         ry="0.17464788" />
      <rect
         style="fill:#009200;fill-opacity:1;stroke-width:0.0352015;stroke-linecap:round;stroke-linejoin:round;paint-order:fill markers stroke;stop-color:#000000"
         id="rect5281"
         width="0.78518528"
         height="1.8486835"
         x="3.1025684"
         y="5.6506443"
         rx="0.14117676"
         ry="0.33239436" />
      <rect
         style="fill:#009200;fill-opacity:1;stroke-width:0.0405207;stroke-linecap:round;stroke-linejoin:round;paint-order:fill markers stroke;stop-color:#000000"
         id="rect5283"
         width="0.73956847"
         height="2.6006904"
         x="12.460569"
         y="3.7298925"
         rx="0.13297483"
         ry="0.46760562" />
      <rect
         style="fill:#009200;fill-opacity:1;stroke-width:0.0200136;stroke-linecap:round;stroke-linejoin:round;paint-order:fill markers stroke;stop-color:#000000"
         id="rect5285"
         width="0.44641319"
         height="1.0510598"
         x="6.7947917"
         y="5.0081143"
         rx="0.080265343"
         ry="0.18898116" />
      <rect
         style="fill:#009200;fill-opacity:1;stroke-width:0.0352015;stroke-linecap:round;stroke-linejoin:round;paint-order:fill markers stroke;stop-color:#000000"
         id="rect5287"
         width="0.78518528"
         height="1.8486835"
         x="16.307671"
         y="6.8913927"
         rx="0.14117676"
         ry="0.33239436" />
      <path
         id="rect5289"
         style="fill:#00de00;fill-opacity:0.8;stroke-width:0.0649999;stroke-linecap:round;stroke-linejoin:round;paint-order:fill markers stroke;stop-color:#000000"
         d="M 0,0 H 20 V 2.5 H 0 Z"
         sodipodi:nodetypes="ccccc" />
    </g>
    <g
       id="g5439"
       transform="matrix(0.84666667,0,0,0.84636786,0,0.0059762)">
      <g
         id="g5329"
         transform="translate(20)">
        <path
           id="rect5299"
           style="fill:#c87137;stroke-width:0.0398602;stroke-linecap:round;stroke-linejoin:round;paint-order:fill markers stroke;stop-color:#000000"
           d="M 0,20 20,0 v 0 20 0 z"
           sodipodi:nodetypes="cccccccc" />
        <path
           id="path5301"
           style="fill:#00a300;fill-opacity:1;stroke-width:0.0628947;stroke-linecap:round;stroke-linejoin:round;paint-order:fill markers stroke;stop-color:#000000"
           d="M 0,20 20,0 v 0 10 0 c 0,0 -1.467683,1.058428 -2.064193,1.729107 -0.70642,0.794255 -1.029639,1.883755 -1.748542,2.66673 -0.919953,1.001945 -2.40935,1.420101 -3.209548,2.52005 -0.401606,0.552047 -0.279978,1.389692 -0.70747,1.921945 C 11.820821,19.397394 10.457733,20 10.457733,20 15.122517,20 4.664784,20 0,20 Z"
           sodipodi:nodetypes="cccccaaaacc" />
        <rect
           style="fill:#b16431;fill-opacity:1;stroke-width:0.0649999;stroke-linecap:round;stroke-linejoin:round;paint-order:fill markers stroke;stop-color:#000000"
           id="rect5303"
           width="2.2246869"
           height="2.2246869"
           x="16.326408"
           y="16.436472"
           rx="0.40000001"
           ry="0.40000001" />
        <rect
           style="fill:#009200;fill-opacity:1;stroke-width:0.0352015;stroke-linecap:round;stroke-linejoin:round;paint-order:fill markers stroke;stop-color:#000000"
           id="rect5309"
           width="0.78518528"
           height="1.8486835"
           x="11.211742"
           y="10.170512"
           rx="0.14117676"
           ry="0.33239436" />
        <rect
           style="fill:#009200;fill-opacity:1;stroke-width:0.0405207;stroke-linecap:round;stroke-linejoin:round;paint-order:fill markers stroke;stop-color:#000000"
           id="rect5311"
           width="0.73956847"
           height="2.6006904"
           x="8.0736389"
           y="14.719374"
           rx="0.13297483"
           ry="0.46760562" />
        <rect
           style="fill:#009200;fill-opacity:1;stroke-width:0.0352015;stroke-linecap:round;stroke-linejoin:round;paint-order:fill markers stroke;stop-color:#000000"
           id="rect5315"
           width="0.78518528"
           height="1.8486835"
           x="16.307671"
           y="6.8913927"
           rx="0.14117676"
           ry="0.33239436" />
        <path
           id="rect5317"
           style="fill:#00de00;fill-opacity:0.8;stroke-width:0.0649999;stroke-linecap:round;stroke-linejoin:round;paint-order:fill markers stroke;stop-color:#000000"
           d="M 0,20 20,0 V 2.4938216 L 2.4999999,20.007061 Z"
           sodipodi:nodetypes="ccccc" />
      </g>
    </g>
    <g
       id="g5447"
       transform="matrix(0.84666667,0,0,0.84636786,0,0.0059762)">
      <g
         id="g5349"
         transform="translate(40)">
        <path
           id="path5335"
           style="fill:#c87137;stroke-width:0.0398602;stroke-linecap:round;stroke-linejoin:round;paint-order:fill markers stroke;stop-color:#000000"
           d="M 0,20 C 9.6376825,15.960462 16.04361,9.0632362 20,0 v 0 20 0 z"
           sodipodi:nodetypes="cccccc" />
        <path
           id="path5337"
           style="fill:#00a300;fill-opacity:1;stroke-width:0.0628947;stroke-linecap:round;stroke-linejoin:round;paint-order:fill markers stroke;stop-color:#000000"
           d="M 0,20 C 10.080234,15.830438 16.090134,8.6833313 20,0 v 0 10 0 c 0,0 -1.467683,1.058428 -2.064193,1.729107 -0.70642,0.794255 -1.029639,1.883755 -1.748542,2.66673 -0.919953,1.001945 -2.40935,1.420101 -3.209548,2.52005 -0.401606,0.552047 -0.279978,1.389692 -0.70747,1.921945 C 11.820821,19.397394 10.457733,20 10.457733,20 Z"
           sodipodi:nodetypes="cccccaaaacc" />
        <rect
           style="fill:#b16431;fill-opacity:1;stroke-width:0.0649999;stroke-linecap:round;stroke-linejoin:round;paint-order:fill markers stroke;stop-color:#000000"
           id="rect5339"
           width="2.2246869"
           height="2.2246869"
           x="16.326408"
           y="16.436472"
           rx="0.40000001"
           ry="0.40000001" />
        <rect
           style="fill:#009200;fill-opacity:1;stroke-width:0.0352015;stroke-linecap:round;stroke-linejoin:round;paint-order:fill markers stroke;stop-color:#000000"
           id="rect5345"
           width="0.78518528"
           height="1.8486835"
           x="16.307671"
           y="6.8913927"
           rx="0.14117676"
           ry="0.33239436" />
        <path
           id="path5347"
           style="fill:#00de00;fill-opacity:0.8;stroke-width:0.0649999;stroke-linecap:round;stroke-linejoin:round;paint-order:fill markers stroke;stop-color:#000000"
           d="M 0,20 C 9.3499869,16.021955 15.999548,9.3381487 20,0 V 2.4938216 C 16.154174,9.4303009 10.82341,16.508692 2.4999998,20.00719 Z"
           sodipodi:nodetypes="ccccc" />
      </g>
    </g>
    <g
       id="g5457"
       transform="matrix(0.84666667,0,0,0.84636786,16.933331,0.0059762)">
      <g
         id="g5373"
         transform="translate(60)">
        <path
           id="path5359"
           style="fill:#c87137;stroke-width:0.0398602;stroke-linecap:round;stroke-linejoin:round;paint-order:fill markers stroke;stop-color:#000000"
           d="M 0,20 20,0 v 0 20 0 z"
           sodipodi:nodetypes="cccccccc" />
        <path
           id="path5361"
           style="fill:#00a300;fill-opacity:1;stroke-width:0.0628947;stroke-linecap:round;stroke-linejoin:round;paint-order:fill markers stroke;stop-color:#000000"
           d="M 0,20 C 6.7957822,9.2661946 13.534993,0.31437701 20,0 v 0 10 0 c 0,0 -1.481599,-0.3193873 -2.12686,-0.025576 -0.93677,0.426547 -1.222082,1.67845 -1.999211,2.353394 -0.862286,0.748904 -2.056863,1.056187 -2.896212,1.830711 -0.953479,0.879838 -1.885244,1.89635 -2.336818,3.112622 C 10.323584,18.125809 10.457733,20 10.457733,20 Z"
           sodipodi:nodetypes="cccccaaaacc" />
        <rect
           style="fill:#b16431;fill-opacity:1;stroke-width:0.0649999;stroke-linecap:round;stroke-linejoin:round;paint-order:fill markers stroke;stop-color:#000000"
           id="rect5363"
           width="2.2246869"
           height="2.2246869"
           x="16.326408"
           y="16.436472"
           rx="0.40000001"
           ry="0.40000001" />
        <rect
           style="fill:#009200;fill-opacity:1;stroke-width:0.0352015;stroke-linecap:round;stroke-linejoin:round;paint-order:fill markers stroke;stop-color:#000000"
           id="rect5365"
           width="0.78518528"
           height="1.8486835"
           x="11.211742"
           y="10.170512"
           rx="0.14117676"
           ry="0.33239436" />
        <rect
           style="fill:#009200;fill-opacity:1;stroke-width:0.0405207;stroke-linecap:round;stroke-linejoin:round;paint-order:fill markers stroke;stop-color:#000000"
           id="rect5367"
           width="0.73956847"
           height="2.6006904"
           x="8.0736389"
           y="14.719374"
           rx="0.13297483"
           ry="0.46760562" />
        <rect
           style="fill:#009200;fill-opacity:1;stroke-width:0.0352015;stroke-linecap:round;stroke-linejoin:round;paint-order:fill markers stroke;stop-color:#000000"
           id="rect5369"
           width="0.78518528"
           height="1.8486835"
           x="16.307671"
           y="6.8913927"
           rx="0.14117676"
           ry="0.33239436" />
        <path
           id="path5371"
           style="fill:#00de00;fill-opacity:0.8;stroke-width:0.0649999;stroke-linecap:round;stroke-linejoin:round;paint-order:fill markers stroke;stop-color:#000000"
           d="M 0,20 C 4.5581738,13.211911 12.728336,0 20,0 V 2.4938216 C 13.415147,3.2911636 7.7541302,13.504596 2.5000025,20.007061 Z"
           sodipodi:nodetypes="ccccc" />
      </g>
    </g>
    <g
       id="g5463"
       transform="matrix(0.84666667,0,0,0.84636786,16.933331,0.0059762)">
      <rect
         style="fill:#c87137;stroke-width:0.0398602;stroke-linecap:round;stroke-linejoin:round;paint-order:fill markers stroke;stop-color:#000000"
         id="rect5377"
         width="20"
         height="20"
         x="80"
         y="0"
         rx="1.7020687e-17"
         ry="1.7020687e-17" />
      <rect
         style="fill:#b16431;fill-opacity:1;stroke-width:0.0649999;stroke-linecap:round;stroke-linejoin:round;paint-order:fill markers stroke;stop-color:#000000"
         id="rect5381"
         width="2.2246869"
         height="2.2246869"
         x="83.697365"
         y="3.9793689"
         rx="0.40000001"
         ry="0.40000001" />
      <rect
         style="fill:#b16431;fill-opacity:1;stroke-width:0.0869717;stroke-linecap:round;stroke-linejoin:round;paint-order:fill markers stroke;stop-color:#000000"
         id="rect5383"
         width="2.9766936"
         height="2.9766936"
         x="84.668709"
         y="12.690114"
         rx="0.53521127"
         ry="0.53521127" />
      <rect
         style="fill:#b16431;fill-opacity:1;stroke-width:0.0283802;stroke-linecap:round;stroke-linejoin:round;paint-order:fill markers stroke;stop-color:#000000"
         id="rect5385"
         width="0.97134215"
         height="0.97134215"
         x="94.19413"
         y="8.3034077"
         rx="0.17464788"
         ry="0.17464788" />
    </g>
    <g
       id="g5468"
       transform="matrix(0.84666667,0,0,0.84636786,16.933331,0.0059762)">
      <rect
         style="fill:#c87137;stroke-width:0.0398602;stroke-linecap:round;stroke-linejoin:round;paint-order:fill markers stroke;stop-color:#000000"
         id="rect5411"
         width="20"
         height="20"
         x="100"
         y="0"
         rx="1.7020687e-17"
         ry="1.7020687e-17" />
      <rect
         style="fill:#b16431;fill-opacity:1;stroke-width:0.0649999;stroke-linecap:round;stroke-linejoin:round;paint-order:fill markers stroke;stop-color:#000000"
         id="rect5413"
         width="2.2246869"
         height="2.2246869"
         x="110.52609"
         y="3.9793689"
         rx="0.40000001"
         ry="0.40000001" />
      <rect
         style="fill:#b16431;fill-opacity:1;stroke-width:0.0869717;stroke-linecap:round;stroke-linejoin:round;paint-order:fill markers stroke;stop-color:#000000"
         id="rect5415"
         width="2.9766936"
         height="2.9766936"
         x="106.07188"
         y="11.894987"
         rx="0.53521127"
         ry="0.53521127" />
    </g>
    <g
       id="g5490"
       transform="matrix(0.84666667,0,0,0.84666667,50.8,0)">
      <rect
         style="fill:#c87137;stroke-width:0.0398602;stroke-linecap:round;stroke-linejoin:round;paint-order:fill markers stroke;stop-color:#000000"
         id="rect5470"
         width="20"
         height="20"
         x="0"
         y="0"
         rx="1.7020687e-17"
         ry="1.7020687e-17" />
      <path
         id="path5472"
         style="fill:#00a300;fill-opacity:1;stroke-width:0.0628947;stroke-linecap:round;stroke-linejoin:round;paint-order:fill markers stroke;stop-color:#000000"
         d="m 0,0 c 9.452941,0 29.666718,0 9.2829129,0 -1.9072145,2.5215649 -1.9072145,2.5215649 0,0 0,0 -0.6385724,1.9643272 -1.2798642,2.7434479 C 7.5168499,3.3341424 6.7231616,3.5905834 6.1484475,4.0955715 5.6422018,4.5403979 5.1869523,5.0433765 4.757179,5.5624623 4.0936498,6.3638816 3.6862578,7.3775532 2.9330289,8.0953206 2.0891029,8.8995153 0,10 0,10 v 0 z"
         sodipodi:nodetypes="cccaaaaccc" />
      <rect
         style="fill:#b16431;fill-opacity:1;stroke-width:0.0649999;stroke-linecap:round;stroke-linejoin:round;paint-order:fill markers stroke;stop-color:#000000"
         id="rect5474"
         width="2.2246869"
         height="2.2246869"
         x="3.697367"
         y="11.562104"
         rx="0.40000001"
         ry="0.40000001" />
      <rect
         style="fill:#b16431;fill-opacity:1;stroke-width:0.0869717;stroke-linecap:round;stroke-linejoin:round;paint-order:fill markers stroke;stop-color:#000000"
         id="rect5476"
         width="2.9766936"
         height="2.9766936"
         x="11.938108"
         y="14.883468"
         rx="0.53521127"
         ry="0.53521127" />
      <rect
         style="fill:#b16431;fill-opacity:1;stroke-width:0.0283802;stroke-linecap:round;stroke-linejoin:round;paint-order:fill markers stroke;stop-color:#000000"
         id="rect5478"
         width="0.97134215"
         height="0.97134215"
         x="14.194129"
         y="11.374103"
         rx="0.17464788"
         ry="0.17464788" />
      <path
         id="rect5488"
         style="fill:#00de00;fill-opacity:0.8;stroke-width:0.0649999;stroke-linecap:round;stroke-linejoin:round;paint-order:fill markers stroke;stop-color:#000000"
         d="M 0,0 H 2.5 L 0,2.5 Z"
         sodipodi:nodetypes="cccc" />
    </g>
  </g>
</svg>
