<?xml version="1.0" encoding="UTF-8" standalone="no"?>
<svg
   xmlns:dc="http://purl.org/dc/elements/1.1/"
   xmlns:cc="http://creativecommons.org/ns#"
   xmlns:rdf="http://www.w3.org/1999/02/22-rdf-syntax-ns#"
   xmlns:svg="http://www.w3.org/2000/svg"
   xmlns="http://www.w3.org/2000/svg"
   xmlns:sodipodi="http://sodipodi.sourceforge.net/DTD/sodipodi-0.dtd"
   xmlns:inkscape="http://www.inkscape.org/namespaces/inkscape"
   sodipodi:docname="mascotte.svg"
   inkscape:version="1.0 (4035a4fb49, 2020-05-01)"
   id="svg8"
   version="1.1"
   viewBox="0 0 210 297"
   height="297mm"
   width="210mm">
  <defs
     id="defs2" />
  <sodipodi:namedview
     inkscape:snap-global="false"
     showguides="false"
     inkscape:window-maximized="1"
     inkscape:window-y="-6"
     inkscape:window-x="-6"
     inkscape:window-height="838"
     inkscape:window-width="1600"
     showgrid="false"
     inkscape:document-rotation="0"
     inkscape:current-layer="layer1"
     inkscape:document-units="mm"
     inkscape:cy="571.0282"
     inkscape:cx="184.21938"
     inkscape:zoom="0.7"
     inkscape:pageshadow="2"
     inkscape:pageopacity="0.0"
     borderopacity="1.0"
     bordercolor="#666666"
     pagecolor="#ffffff"
     id="base" />
  <metadata
     id="metadata5">
    <rdf:RDF>
      <cc:Work
         rdf:about="">
        <dc:format>image/svg+xml</dc:format>
        <dc:type
           rdf:resource="http://purl.org/dc/dcmitype/StillImage" />
        <dc:title></dc:title>
      </cc:Work>
    </rdf:RDF>
  </metadata>
  <g
     id="layer1"
     inkscape:groupmode="layer"
     inkscape:label="Calque 1">
    <path
       sodipodi:nodetypes="csccc"
       id="path1177"
       d="m 28.753867,177.01977 c 6.353381,3.51056 10.136992,4.85053 14.953164,9.10628 6.51879,5.76025 10.588757,10.8957 12.885405,17.99846 l -21.913121,-9.46677 z"
       style="fill:#ffd95c;fill-opacity:1;stroke:none;stroke-width:0.264583px;stroke-linecap:butt;stroke-linejoin:miter;stroke-opacity:1" />
    <path
       style="fill:#ffecad;fill-opacity:1;stroke:none;stroke-width:0.264583px;stroke-linecap:butt;stroke-linejoin:miter;stroke-opacity:1"
       d="M 48.840659,194.14901 C 45.553179,186.63254 38.412265,182.935 33.37606,181.27397 c 5.533034,2.39795 9.443862,9.17231 15.464599,12.87504 z"
       id="path1179"
       sodipodi:nodetypes="ccc" />
    <rect
       ry="7.6035705"
       rx="6.5586281"
       y="85.800598"
       x="20.032736"
       height="36.285713"
       width="36.285713"
       id="rect833"
       style="fill:#ffd95c;fill-opacity:1;stroke:#000000;stroke-width:1.265;stroke-linecap:round;stroke-linejoin:round;stroke-miterlimit:4;stroke-dasharray:none" />
    <ellipse
       style="fill:#ffffff;stroke:none;stroke-width:0.316382;stroke-linecap:round;stroke-linejoin:round"
       id="ellipse849"
       cx="46.955875"
       cy="97.298401"
       rx="3.7540705"
       ry="5.4245052" />
    <ellipse
       ry="5.4245052"
       rx="3.7540705"
       cy="97.298401"
       cx="28.915182"
       id="path835"
       style="fill:#ffffff;stroke:none;stroke-width:0.316382;stroke-linecap:round;stroke-linejoin:round" />
    <path
       sodipodi:nodetypes="cc"
       id="path839"
       d="m 37.608633,85.800591 c 2.39746,-10.6321 4.76576,-21.27733 26.83631,-23.05654"
       style="fill:none;stroke:#000000;stroke-width:1.365;stroke-linecap:butt;stroke-linejoin:miter;stroke-miterlimit:4;stroke-dasharray:none;stroke-opacity:1" />
    <ellipse
       ry="4.2522321"
       rx="3.49628"
       cy="62.460567"
       cx="67.752235"
       id="path841"
       style="fill:#110605;fill-opacity:1;stroke:#000000;stroke-width:0.264999;stroke-linecap:round;stroke-linejoin:round" />
    <circle
       style="fill:#000000;fill-opacity:1;stroke:#000000;stroke-width:0.124696;stroke-linecap:round;stroke-linejoin:round"
       id="circle843"
       cx="29.18244"
       cy="97.632492"
       r="1.7785746" />
    <circle
       r="1.7785746"
       cy="97.365219"
       cx="46.822239"
       id="circle845"
       style="fill:#000000;fill-opacity:1;stroke:#000000;stroke-width:0.124696;stroke-linecap:round;stroke-linejoin:round" />
    <path
       sodipodi:nodetypes="sssss"
       d="m 44.054223,112.23757 c 0,1.30618 -2.92695,4.53841 -6.53753,4.53841 -3.61058,0 -6.53753,-3.13774 -6.53753,-4.44392 0,-1.30618 2.92695,-0.28618 6.53753,-0.28618 3.61058,0 6.53753,-1.11449 6.53753,0.19169 z"
       style="fill:#000000;fill-opacity:1;stroke:#000000;stroke-width:0.152517;stroke-linecap:round;stroke-linejoin:round"
       id="path847" />
    <ellipse
       ry="1.2361215"
       rx="0.90203464"
       cy="60.422504"
       cx="68.620186"
       id="path908"
       style="fill:#c7c7c7;fill-opacity:1;stroke:none;stroke-width:1.365;stroke-linecap:round;stroke-linejoin:round;stroke-miterlimit:4;stroke-dasharray:none" />
    <path
       sodipodi:nodetypes="cssccsc"
       id="path910"
       d="m 42.167273,87.265251 7.98475,-0.23623 c 1.91459,-0.0566 4.99098,3.05322 4.81919,4.96093 l -0.89769,9.969129 -1.13393,-9.732889 c -0.60515,-1.46097 -1.80208,-3.05367 -3.35454,-3.35454 z"
       style="fill:#ffecad;fill-opacity:1;stroke:none;stroke-width:0.264583px;stroke-linecap:butt;stroke-linejoin:miter;stroke-opacity:1" />
    <path
       style="fill:#ffecad;fill-opacity:1;stroke:none;stroke-width:0.264583px;stroke-linecap:butt;stroke-linejoin:miter;stroke-opacity:1"
       d="m 34.159783,87.265251 -7.98475,-0.23623 c -1.9146,-0.0566 -4.99098,3.05322 -4.8192,4.96093 l 0.89769,9.969129 1.13393,-9.732889 c 0.60516,-1.46097 1.80208,-3.05367 3.35454,-3.35454 z"
       id="path912"
       sodipodi:nodetypes="cssccsc" />
    <path
       style="fill:#ffecad;fill-opacity:1;stroke:none;stroke-width:0.264583px;stroke-linecap:butt;stroke-linejoin:miter;stroke-opacity:1"
       d="m 42.167273,120.4319 7.98475,0.23623 c 1.91459,0.0566 4.99098,-3.05322 4.81919,-4.96093 l -0.89769,-9.96913 -1.13393,9.73289 c -0.60515,1.46097 -1.80208,3.05367 -3.35454,3.35454 z"
       id="path914"
       sodipodi:nodetypes="cssccsc" />
    <path
       sodipodi:nodetypes="cssccsc"
       id="path916"
       d="m 34.159783,120.4319 -7.98475,0.23623 c -1.9146,0.0566 -4.99098,-3.05322 -4.8192,-4.96093 l 0.89769,-9.96913 1.13393,9.73289 c 0.60516,1.46097 1.80208,3.05367 3.35454,3.35454 z"
       style="fill:#ffecad;fill-opacity:1;stroke:none;stroke-width:0.264583px;stroke-linecap:butt;stroke-linejoin:miter;stroke-opacity:1" />
    <rect
       style="fill:#ffd95c;fill-opacity:1;stroke:#000000;stroke-width:1.265;stroke-linecap:round;stroke-linejoin:round;stroke-miterlimit:4;stroke-dasharray:none"
       id="rect941"
       width="36.285713"
       height="36.285713"
       x="112.24072"
       y="85.800598"
       rx="6.5586281"
       ry="7.6035705" />
    <ellipse
       ry="5.4245052"
       rx="3.7540705"
       cy="97.298401"
       cx="139.16386"
       id="ellipse943"
       style="fill:#ffffff;stroke:none;stroke-width:0.316382;stroke-linecap:round;stroke-linejoin:round" />
    <path
       d="m 124.87724,97.298401 a 3.7540705,5.4245052 0 0 1 -3.75407,5.424509 3.7540705,5.4245052 0 0 1 -3.75407,-5.424509 3.7540705,5.4245052 0 0 1 3.75407,-5.424505 3.7540705,5.4245052 0 0 1 3.75407,5.424505"
       style="fill:#ffffff;stroke:none;stroke-width:0.316382;stroke-linecap:round;stroke-linejoin:round"
       id="ellipse945" />
    <circle
       r="1.7785746"
       cy="97.632492"
       cx="121.39043"
       id="circle951"
       style="fill:#000000;fill-opacity:1;stroke:#000000;stroke-width:0.124696;stroke-linecap:round;stroke-linejoin:round" />
    <circle
       style="fill:#000000;fill-opacity:1;stroke:#000000;stroke-width:0.124696;stroke-linecap:round;stroke-linejoin:round"
       id="circle953"
       cx="139.03023"
       cy="97.365219"
       r="1.7785746" />
    <path
       id="path955"
       style="fill:#000000;fill-opacity:1;stroke:#000000;stroke-width:0.188726;stroke-linecap:round;stroke-linejoin:round"
       d="m 136.24407,109.78947 c 0,2.00556 -2.91883,6.96845 -6.51939,6.96845 -3.60056,0 -6.51939,-4.81781 -6.51939,-6.82337 0,-2.00556 2.91883,-0.43941 6.51939,-0.43941 3.60056,0 6.51939,-1.71123 6.51939,0.29433 z"
       sodipodi:nodetypes="sssss" />
    <g
       style="opacity:0.535912"
       id="g983">
      <g
         id="g971">
        <path
           style="fill:none;stroke:#000000;stroke-width:1.365;stroke-linecap:butt;stroke-linejoin:miter;stroke-miterlimit:4;stroke-dasharray:none;stroke-opacity:1"
           d="m 129.81662,85.800591 c 2.39746,-10.6321 4.76576,-21.27733 26.83631,-23.05654"
           id="path947"
           sodipodi:nodetypes="cc" />
        <ellipse
           style="fill:#110605;fill-opacity:1;stroke:#000000;stroke-width:0.264999;stroke-linecap:round;stroke-linejoin:round"
           id="ellipse949"
           cx="159.96022"
           cy="62.460567"
           rx="3.49628"
           ry="4.2522321" />
      </g>
      <ellipse
         ry="1.2361215"
         rx="0.90203464"
         cy="60.422504"
         cx="160.82817"
         id="ellipse957"
         style="fill:#c7c7c7;fill-opacity:1;stroke:none;stroke-width:1.365;stroke-linecap:round;stroke-linejoin:round;stroke-miterlimit:4;stroke-dasharray:none" />
    </g>
    <path
       style="fill:#ffecad;fill-opacity:1;stroke:none;stroke-width:0.264583px;stroke-linecap:butt;stroke-linejoin:miter;stroke-opacity:1"
       d="m 134.37526,87.265251 7.98475,-0.23623 c 1.91459,-0.0566 4.99098,3.05322 4.81919,4.96093 l -0.89769,9.969129 -1.13393,-9.732889 c -0.60515,-1.46097 -1.80208,-3.05367 -3.35454,-3.35454 z"
       id="path959"
       sodipodi:nodetypes="cssccsc" />
    <path
       sodipodi:nodetypes="cssccsc"
       id="path961"
       d="m 126.36777,87.265251 -7.98475,-0.23623 c -1.9146,-0.0566 -4.99098,3.05322 -4.8192,4.96093 l 0.89769,9.969129 1.13393,-9.732889 c 0.60516,-1.46097 1.80208,-3.05367 3.35454,-3.35454 z"
       style="fill:#ffecad;fill-opacity:1;stroke:none;stroke-width:0.264583px;stroke-linecap:butt;stroke-linejoin:miter;stroke-opacity:1" />
    <path
       sodipodi:nodetypes="cssccsc"
       id="path963"
       d="m 134.37526,120.4319 7.98475,0.23623 c 1.91459,0.0566 4.99098,-3.05322 4.81919,-4.96093 l -0.89769,-9.96913 -1.13393,9.73289 c -0.60515,1.46097 -1.80208,3.05367 -3.35454,3.35454 z"
       style="fill:#ffecad;fill-opacity:1;stroke:none;stroke-width:0.264583px;stroke-linecap:butt;stroke-linejoin:miter;stroke-opacity:1" />
    <path
       style="fill:#ffecad;fill-opacity:1;stroke:none;stroke-width:0.264583px;stroke-linecap:butt;stroke-linejoin:miter;stroke-opacity:1"
       d="m 126.36777,120.4319 -7.98475,0.23623 c -1.9146,0.0566 -4.99098,-3.05322 -4.8192,-4.96093 l 0.89769,-9.96913 1.13393,9.73289 c 0.60516,1.46097 1.80208,3.05367 3.35454,3.35454 z"
       id="path965"
       sodipodi:nodetypes="cssccsc" />
    <g
       transform="matrix(-1,0,0,1,259.63324,0)"
       id="g993">
      <g
         id="g989" />
    </g>
    <g
       transform="matrix(-1,0,0,1,259.63324,0)"
       id="g1029"
       style="opacity:0.207182">
      <g
         id="g1025">
        <path
           sodipodi:nodetypes="cc"
           id="path1021"
           d="m 129.81662,85.800591 c 2.39746,-10.6321 4.76576,-21.27733 26.83631,-23.05654"
           style="fill:none;stroke:#000000;stroke-width:1.365;stroke-linecap:butt;stroke-linejoin:miter;stroke-miterlimit:4;stroke-dasharray:none;stroke-opacity:1" />
        <ellipse
           ry="4.2522321"
           rx="3.49628"
           cy="62.460567"
           cx="159.96022"
           id="ellipse1023"
           style="fill:#110605;fill-opacity:1;stroke:#000000;stroke-width:0.264999;stroke-linecap:round;stroke-linejoin:round" />
      </g>
      <ellipse
         style="fill:#c7c7c7;fill-opacity:1;stroke:none;stroke-width:1.365;stroke-linecap:round;stroke-linejoin:round;stroke-miterlimit:4;stroke-dasharray:none"
         id="ellipse1027"
         cx="160.82817"
         cy="60.422504"
         rx="0.90203464"
         ry="1.2361215" />
    </g>
    <path
       sodipodi:nodetypes="cc"
       id="path1049"
       d="m 104.71756,58.066833 c 16.48875,-15.554944 31.80093,-18.208365 52.069,0.26727"
       style="fill:none;stroke:#000000;stroke-width:0.264583px;stroke-linecap:butt;stroke-linejoin:miter;stroke-opacity:1" />
    <path
       style="fill:none;stroke:#000000;stroke-width:0.264583px;stroke-linecap:butt;stroke-linejoin:miter;stroke-opacity:1"
       d="m 110.95416,55.9282 c 9.27623,-9.010117 18.59545,-10.930283 28.95989,-6.934425"
       id="path1051"
       sodipodi:nodetypes="cc" />
    <path
       sodipodi:nodetypes="cc"
       id="path1053"
       d="m 122.2222,51.323621 c 11.93853,-4.97013 22.4621,1.018194 30.6325,8.543693"
       style="fill:none;stroke:#000000;stroke-width:0.264583px;stroke-linecap:butt;stroke-linejoin:miter;stroke-opacity:1" />
    <ellipse
       ry="2.1047475"
       rx="3.4745038"
       cy="102.53127"
       cx="121.0731"
       id="path1109"
       style="opacity:1;fill:#ffd95c;fill-opacity:1;stroke:none;stroke-width:1.66379;stroke-linecap:round;stroke-linejoin:round;stroke-miterlimit:4;stroke-dasharray:none;stroke-opacity:1" />
    <ellipse
       style="opacity:1;fill:#ffd95c;fill-opacity:1;stroke:none;stroke-width:1.66379;stroke-linecap:round;stroke-linejoin:round;stroke-miterlimit:4;stroke-dasharray:none;stroke-opacity:1"
       id="ellipse1111"
       cx="138.98015"
       cy="102.53127"
       rx="3.4745038"
       ry="2.1047475" />
    <path
       sodipodi:nodetypes="ccccssssc"
       d="m 26.591364,177.27084 c 7.327902,0.37724 6.596586,5.48878 6.537505,10.58334 0.689261,6.33471 9.482856,6.66706 12.889729,7.22559 6.28248,1.38575 10.36887,4.5645 10.299851,10.87322 0.01766,4.58633 -2.925148,7.60357 -6.558628,7.60357 H 26.591364 c -3.63348,0 -6.558628,-3.3912 -6.558628,-7.60357 v -21.07858 c 0,-4.21237 1.678095,-7.45589 6.558628,-7.60357 z"
       style="fill:#ffd95c;fill-opacity:1;stroke:#000000;stroke-width:1.265;stroke-linecap:round;stroke-linejoin:round;stroke-miterlimit:4;stroke-dasharray:none"
       id="rect1146" />
    <ellipse
       style="fill:#ffffff;stroke:none;stroke-width:0.316382;stroke-linecap:round;stroke-linejoin:round"
       id="ellipse1150"
       cx="28.915182"
       cy="188.76865"
       rx="3.7540705"
       ry="5.4245052" />
    <path
       style="fill:none;stroke:#000000;stroke-width:1.365;stroke-linecap:butt;stroke-linejoin:miter;stroke-miterlimit:4;stroke-dasharray:none;stroke-opacity:1"
       d="m 33.116808,185.20833 c -0.241909,-1.30852 -5.780816,-2.04375 2.412957,-8.12648"
       id="path1152"
       sodipodi:nodetypes="cc" />
    <ellipse
       transform="rotate(-11.468039)"
       style="fill:#110605;fill-opacity:1;stroke:#000000;stroke-width:0.264999;stroke-linecap:round;stroke-linejoin:round"
       id="ellipse1154"
       cx="2.6956162"
       cy="178.24704"
       rx="3.49628"
       ry="4.2522321" />
    <circle
       r="1.7785746"
       cy="187.49911"
       cx="30.117884"
       id="circle1156"
       style="fill:#000000;fill-opacity:1;stroke:#000000;stroke-width:0.124696;stroke-linecap:round;stroke-linejoin:round" />
    <path
       id="path1160"
       style="fill:#000000;fill-opacity:1;stroke:#000000;stroke-width:0.152517;stroke-linecap:round;stroke-linejoin:round"
       d="m 44.054223,203.70781 c 0,1.30618 -2.92695,4.53841 -6.53753,4.53841 -3.61058,0 -6.53753,-3.13774 -6.53753,-4.44392 0,-1.30618 2.92695,-0.28618 6.53753,-0.28618 3.61058,0 6.53753,-1.11449 6.53753,0.19169 z"
       sodipodi:nodetypes="sssss" />
    <ellipse
       transform="rotate(-11.468039)"
       style="fill:#c7c7c7;fill-opacity:1;stroke:none;stroke-width:1.365;stroke-linecap:round;stroke-linejoin:round;stroke-miterlimit:4;stroke-dasharray:none"
       id="ellipse1162"
       cx="3.5635667"
       cy="176.20898"
       rx="0.90203464"
       ry="1.2361215" />
    <path
       sodipodi:nodetypes="cssccscc"
       id="path1166"
       d="m 29.719469,178.60412 -3.544436,-0.10486 c -1.9146,-0.0566 -4.99098,3.05322 -4.8192,4.96093 l 0.89769,9.96913 1.13393,-9.73289 c 0.60516,-1.46097 1.80208,-3.05367 3.35454,-3.35454 l 4.192365,-0.9079 c -0.185758,-0.49583 -0.653395,-0.70978 -1.214889,-0.82987 z"
       style="fill:#ffecad;fill-opacity:1;stroke:none;stroke-width:0.264583px;stroke-linecap:butt;stroke-linejoin:miter;stroke-opacity:1" />
    <path
       sodipodi:nodetypes="csscccsc"
       id="path1168"
       d="m 42.167273,211.90214 7.98475,0.23623 c 1.91459,0.0566 4.99098,-3.05322 4.81919,-4.96093 l -0.563355,-6.25623 -0.658601,-0.92962 -0.809664,6.94961 c -0.60515,1.46097 -1.80208,3.05367 -3.35454,3.35454 z"
       style="fill:#ffecad;fill-opacity:1;stroke:none;stroke-width:0.264583px;stroke-linecap:butt;stroke-linejoin:miter;stroke-opacity:1" />
    <path
       style="fill:#ffecad;fill-opacity:1;stroke:none;stroke-width:0.264583px;stroke-linecap:butt;stroke-linejoin:miter;stroke-opacity:1"
       d="m 34.159783,211.90214 -7.98475,0.23623 c -1.9146,0.0566 -4.99098,-3.05322 -4.8192,-4.96093 l 0.89769,-9.96913 1.13393,9.73289 c 0.60516,1.46097 1.80208,3.05367 3.35454,3.35454 z"
       id="path1170"
       sodipodi:nodetypes="cssccsc" />
    <path
       sodipodi:nodetypes="cccccsscc"
       id="path1201"
       d="m 52.251191,201.4544 c -7.489414,-2.49463 -10.418853,-2.76865 -15.56845,-5.67947 -2.646618,-1.49601 -4.102294,-1.7311 -5.078121,-4.6104 -1.273018,-3.75621 1.329354,-9.36526 -2.53906,-12.62849 0.726924,-0.72232 2.308489,1.05989 3.274053,1.40318 2.971689,1.05654 -0.826894,7.55673 1.272895,9.99939 2.803973,3.26183 6.455047,4.10756 10.517196,4.9567 2.14149,0.44765 5.488348,0.20221 6.384237,1.5478 1.217932,1.82929 7.497513,6.73928 1.73725,5.01129 z"
       style="fill:#000000;fill-opacity:0.436242;stroke:none;stroke-width:0.264583px;stroke-linecap:butt;stroke-linejoin:miter;stroke-opacity:1" />
    <rect
       style="fill:#ffd95c;fill-opacity:1;stroke:#000000;stroke-width:1.265;stroke-linecap:round;stroke-linejoin:round;stroke-miterlimit:4;stroke-dasharray:none"
       id="rect1299"
       width="36.285713"
       height="36.285713"
       x="107.69714"
       y="179.87947"
       rx="6.5586281"
       ry="7.6035705" />
    <path
       sodipodi:nodetypes="csccc"
       d="m 138.42161,189.95986 c 0,2.99587 -1.728,6.84192 -3.80132,6.84192 -2.07332,1e-5 -3.70683,-3.84604 -3.70683,-6.84192 h 3.75408 3.75407"
       style="fill:#ffffff;stroke:none;stroke-width:0.316382;stroke-linecap:round;stroke-linejoin:round"
       id="ellipse1301" />
    <ellipse
       style="fill:#ffffff;stroke:none;stroke-width:0.316382;stroke-linecap:round;stroke-linejoin:round"
       id="ellipse1303"
       cx="116.57959"
       cy="191.37727"
       rx="3.7540705"
       ry="5.4245052" />
    <path
       style="fill:none;stroke:#000000;stroke-width:1.365;stroke-linecap:butt;stroke-linejoin:miter;stroke-miterlimit:4;stroke-dasharray:none;stroke-opacity:1"
       d="m 125.27304,179.87946 c 2.39746,-10.6321 4.76576,-21.27733 26.83631,-23.05654"
       id="path1305"
       sodipodi:nodetypes="cc" />
    <ellipse
       style="fill:#110605;fill-opacity:1;stroke:#000000;stroke-width:0.264999;stroke-linecap:round;stroke-linejoin:round"
       id="ellipse1307"
       cx="155.41664"
       cy="156.53944"
       rx="3.49628"
       ry="4.2522321" />
    <circle
       r="1.7785746"
       cy="189.42337"
       cx="114.96646"
       id="circle1309"
       style="fill:#000000;fill-opacity:1;stroke:#000000;stroke-width:0.124696;stroke-linecap:round;stroke-linejoin:round" />
    <path
       id="path1313"
       style="fill:#000000;fill-opacity:1;stroke:#000000;stroke-width:0.152517;stroke-linecap:round;stroke-linejoin:round"
       d="m 132.47458,210.21955 c 0,-1.30618 -3.06058,-3.93705 -6.53753,-4.53841 -3.55776,-0.61533 -4.1321,-0.93222 -4.1321,0.37396 0,1.30618 0.84199,0.92232 4.34876,1.78188 3.54377,0.86862 6.32087,3.68875 6.32087,2.38257 z"
       sodipodi:nodetypes="sssss" />
    <ellipse
       style="fill:#c7c7c7;fill-opacity:1;stroke:none;stroke-width:1.365;stroke-linecap:round;stroke-linejoin:round;stroke-miterlimit:4;stroke-dasharray:none"
       id="ellipse1315"
       cx="156.28459"
       cy="154.50137"
       rx="0.90203464"
       ry="1.2361215" />
    <path
       style="fill:#ffecad;fill-opacity:1;stroke:none;stroke-width:0.264583px;stroke-linecap:butt;stroke-linejoin:miter;stroke-opacity:1"
       d="m 129.83168,181.34412 7.98475,-0.23623 c 1.91459,-0.0566 4.99098,3.05322 4.81919,4.96093 l -0.89769,9.96913 -1.13393,-9.73289 c -0.60515,-1.46097 -1.80208,-3.05367 -3.35454,-3.35454 z"
       id="path1317"
       sodipodi:nodetypes="cssccsc" />
    <path
       sodipodi:nodetypes="cssccsc"
       id="path1319"
       d="m 121.82419,181.34412 -7.98475,-0.23623 c -1.9146,-0.0566 -4.99098,3.05322 -4.8192,4.96093 l 0.89769,9.96913 1.13393,-9.73289 c 0.60516,-1.46097 1.80208,-3.05367 3.35454,-3.35454 z"
       style="fill:#ffecad;fill-opacity:1;stroke:none;stroke-width:0.264583px;stroke-linecap:butt;stroke-linejoin:miter;stroke-opacity:1" />
    <path
       sodipodi:nodetypes="cssccsc"
       id="path1321"
       d="m 129.83168,214.51077 7.98475,0.23623 c 1.91459,0.0566 4.99098,-3.05322 4.81919,-4.96093 l -0.89769,-9.96913 -1.13393,9.73289 c -0.60515,1.46097 -1.80208,3.05367 -3.35454,3.35454 z"
       style="fill:#ffecad;fill-opacity:1;stroke:none;stroke-width:0.264583px;stroke-linecap:butt;stroke-linejoin:miter;stroke-opacity:1" />
    <path
       style="fill:#ffecad;fill-opacity:1;stroke:none;stroke-width:0.264583px;stroke-linecap:butt;stroke-linejoin:miter;stroke-opacity:1"
       d="m 121.82419,214.51077 -7.98475,0.23623 c -1.9146,0.0566 -4.99098,-3.05322 -4.8192,-4.96093 l 0.89769,-9.96913 1.13393,9.73289 c 0.60516,1.46097 1.80208,3.05367 3.35454,3.35454 z"
       id="path1323"
       sodipodi:nodetypes="cssccsc" />
    <path
       transform="scale(0.26458333)"
       d="m 494.79102,717.95898 c 0,3.22774 0.51715,6.71003 1.41601,10.04883 a 6.7221717,6.7221717 0 0 0 2.63086,0.53711 6.7221717,6.7221717 0 0 0 6.7207,-6.7207 6.7221717,6.7221717 0 0 0 -1.22265,-3.86524 z"
       style="fill:#000000;fill-opacity:1;stroke:#000000;stroke-width:0.471292;stroke-linecap:round;stroke-linejoin:round"
       id="circle1311" />
    <text
       transform="scale(1.059124,0.94417651)"
       id="text1334"
       y="175.50438"
       x="117.6424"
       style="font-style:normal;font-variant:normal;font-weight:normal;font-stretch:normal;font-size:22.9904px;line-height:1.25;font-family:sans-serif;-inkscape-font-specification:'sans-serif, Normal';font-variant-ligatures:normal;font-variant-caps:normal;font-variant-numeric:normal;font-feature-settings:normal;text-align:center;letter-spacing:0px;word-spacing:0px;writing-mode:lr-tb;text-anchor:middle;fill:#000000;fill-opacity:1;stroke:none;stroke-width:0.979203"
       xml:space="preserve"><tspan
         style="stroke-width:0.979203"
         y="175.50438"
         x="117.6424"
         id="tspan1332"
         sodipodi:role="line">?</tspan></text>
    <text
       xml:space="preserve"
       style="font-style:normal;font-variant:normal;font-weight:normal;font-stretch:normal;font-size:22.9904px;line-height:1.25;font-family:sans-serif;-inkscape-font-specification:'sans-serif, Normal';font-variant-ligatures:normal;font-variant-caps:normal;font-variant-numeric:normal;font-feature-settings:normal;text-align:center;letter-spacing:0px;word-spacing:0px;writing-mode:lr-tb;text-anchor:middle;fill:#000000;fill-opacity:1;stroke:none;stroke-width:0.979203"
       x="-35.786503"
       y="205.8694"
       id="text1338"
       transform="matrix(0.80312007,-0.69046492,0.61552826,0.71595687,0,0)"><tspan
         sodipodi:role="line"
         id="tspan1336"
         x="-35.786503"
         y="205.8694"
         style="stroke-width:0.979203">?</tspan></text>
    <text
       transform="matrix(0.69046492,0.80312007,-0.71595687,0.61552826,0,0)"
       id="text1342"
       y="-5.3880711"
       x="220.17268"
       style="font-style:normal;font-variant:normal;font-weight:normal;font-stretch:normal;font-size:22.9904px;line-height:1.25;font-family:sans-serif;-inkscape-font-specification:'sans-serif, Normal';font-variant-ligatures:normal;font-variant-caps:normal;font-variant-numeric:normal;font-feature-settings:normal;text-align:center;letter-spacing:0px;word-spacing:0px;writing-mode:lr-tb;text-anchor:middle;fill:#000000;fill-opacity:1;stroke:none;stroke-width:0.979203"
       xml:space="preserve"><tspan
         style="stroke-width:0.979203"
         y="-5.3880711"
         x="220.17268"
         id="tspan1340"
         sodipodi:role="line">?</tspan></text>
    <rect
       ry="7.6035705"
       rx="6.5586281"
       y="265.23724"
       x="108.49895"
       height="36.285713"
       width="36.285713"
       id="rect1398"
       style="fill:#ffd95c;fill-opacity:1;stroke:#000000;stroke-width:1.265;stroke-linecap:round;stroke-linejoin:round;stroke-miterlimit:4;stroke-dasharray:none" />
    <ellipse
       ry="8.3538208"
       rx="5.2659755"
       cy="276.73505"
       cx="117.3814"
       id="ellipse1402"
       style="fill:#ffffff;stroke:none;stroke-width:0.46501;stroke-linecap:round;stroke-linejoin:round" />
    <path
       sodipodi:nodetypes="cc"
       id="path1404"
       d="m 126.07485,265.23723 c 2.39746,-10.6321 4.76576,-21.27733 26.83631,-23.05654"
       style="fill:none;stroke:#000000;stroke-width:1.365;stroke-linecap:butt;stroke-linejoin:miter;stroke-miterlimit:4;stroke-dasharray:none;stroke-opacity:1" />
    <ellipse
       ry="4.2522321"
       rx="3.49628"
       cy="241.89722"
       cx="156.21844"
       id="ellipse1406"
       style="fill:#110605;fill-opacity:1;stroke:#000000;stroke-width:0.264999;stroke-linecap:round;stroke-linejoin:round" />
    <ellipse
       ry="3.0355682"
       rx="1.7598984"
       style="fill:#000000;fill-opacity:1;stroke:#000000;stroke-width:0.162048;stroke-linecap:round;stroke-linejoin:round"
       id="circle1408"
       cx="117.28018"
       cy="277.00177" />
    <path
       sodipodi:nodetypes="sssss"
       d="m 133.09233,293.73607 c -0.42004,-1.2368 -4.16409,-2.74369 -7.64974,-2.19498 -3.56666,0.56147 -4.2124,0.44612 -3.79235,1.68291 0.42005,1.2368 1.09387,0.60256 4.69078,0.28874 3.63487,-0.31713 7.17136,1.46013 6.75131,0.22333 z"
       style="fill:#000000;fill-opacity:1;stroke:#000000;stroke-width:0.152517;stroke-linecap:round;stroke-linejoin:round"
       id="path1410" />
    <ellipse
       ry="1.2361215"
       rx="0.90203464"
       cy="239.85915"
       cx="157.0864"
       id="ellipse1412"
       style="fill:#c7c7c7;fill-opacity:1;stroke:none;stroke-width:1.365;stroke-linecap:round;stroke-linejoin:round;stroke-miterlimit:4;stroke-dasharray:none" />
    <path
       sodipodi:nodetypes="cssccsc"
       id="path1414"
       d="m 130.63349,266.70189 7.98475,-0.23623 c 1.91459,-0.0566 4.99098,3.05322 4.81919,4.96093 l -0.89769,9.96913 -1.13393,-9.73289 c -0.60515,-1.46097 -1.80208,-3.05367 -3.35454,-3.35454 z"
       style="fill:#ffecad;fill-opacity:1;stroke:none;stroke-width:0.264583px;stroke-linecap:butt;stroke-linejoin:miter;stroke-opacity:1" />
    <path
       style="fill:#ffecad;fill-opacity:1;stroke:none;stroke-width:0.264583px;stroke-linecap:butt;stroke-linejoin:miter;stroke-opacity:1"
       d="m 122.626,266.70189 -7.98475,-0.23623 c -1.9146,-0.0566 -4.99098,3.05322 -4.8192,4.96093 l 0.89769,9.96913 1.13393,-9.73289 c 0.60516,-1.46097 1.80208,-3.05367 3.35454,-3.35454 z"
       id="path1416"
       sodipodi:nodetypes="cssccsc" />
    <path
       style="fill:#ffecad;fill-opacity:1;stroke:none;stroke-width:0.264583px;stroke-linecap:butt;stroke-linejoin:miter;stroke-opacity:1"
       d="m 130.63349,299.86854 7.98475,0.23623 c 1.91459,0.0566 4.99098,-3.05322 4.81919,-4.96093 l -0.89769,-9.96913 -1.13393,9.73289 c -0.60515,1.46097 -1.80208,3.05367 -3.35454,3.35454 z"
       id="path1418"
       sodipodi:nodetypes="cssccsc" />
    <path
       sodipodi:nodetypes="cssccsc"
       id="path1420"
       d="m 122.626,299.86854 -7.98475,0.23623 c -1.9146,0.0566 -4.99098,-3.05322 -4.8192,-4.96093 l 0.89769,-9.96913 1.13393,9.73289 c 0.60516,1.46097 1.80208,3.05367 3.35454,3.35454 z"
       style="fill:#ffecad;fill-opacity:1;stroke:none;stroke-width:0.264583px;stroke-linecap:butt;stroke-linejoin:miter;stroke-opacity:1" />
    <text
       xml:space="preserve"
       style="font-style:normal;font-variant:normal;font-weight:normal;font-stretch:normal;font-size:22.9904px;line-height:1.25;font-family:sans-serif;-inkscape-font-specification:'sans-serif, Normal';font-variant-ligatures:normal;font-variant-caps:normal;font-variant-numeric:normal;font-feature-settings:normal;text-align:center;letter-spacing:0px;word-spacing:0px;writing-mode:lr-tb;text-anchor:middle;fill:#000000;fill-opacity:1;stroke:none;stroke-width:0.979203"
       x="118.39945"
       y="265.90884"
       id="text1426"
       transform="scale(1.059124,0.94417651)"><tspan
         sodipodi:role="line"
         id="tspan1424"
         x="118.39945"
         y="265.90884"
         style="stroke-width:0.979203">?</tspan></text>
    <text
       transform="matrix(0.80312007,-0.69046492,0.61552826,0.71595687,0,0)"
       id="text1430"
       y="274.97556"
       x="-87.752556"
       style="font-style:normal;font-variant:normal;font-weight:normal;font-stretch:normal;font-size:22.9904px;line-height:1.25;font-family:sans-serif;-inkscape-font-specification:'sans-serif, Normal';font-variant-ligatures:normal;font-variant-caps:normal;font-variant-numeric:normal;font-feature-settings:normal;text-align:center;letter-spacing:0px;word-spacing:0px;writing-mode:lr-tb;text-anchor:middle;fill:#000000;fill-opacity:1;stroke:none;stroke-width:0.979203"
       xml:space="preserve"><tspan
         style="stroke-width:0.979203"
         y="274.97556"
         x="-87.752556"
         id="tspan1428"
         sodipodi:role="line">?</tspan></text>
    <text
       xml:space="preserve"
       style="font-style:normal;font-variant:normal;font-weight:normal;font-stretch:normal;font-size:22.9904px;line-height:1.25;font-family:sans-serif;-inkscape-font-specification:'sans-serif, Normal';font-variant-ligatures:normal;font-variant-caps:normal;font-variant-numeric:normal;font-feature-settings:normal;text-align:center;letter-spacing:0px;word-spacing:0px;writing-mode:lr-tb;text-anchor:middle;fill:#000000;fill-opacity:1;stroke:none;stroke-width:0.979203"
       x="281.77869"
       y="52.904526"
       id="text1434"
       transform="matrix(0.69046492,0.80312007,-0.71595687,0.61552826,0,0)"><tspan
         sodipodi:role="line"
         id="tspan1432"
         x="281.77869"
         y="52.904526"
         style="stroke-width:0.979203">?</tspan></text>
    <ellipse
       style="fill:#ffffff;stroke:none;stroke-width:0.46501;stroke-linecap:round;stroke-linejoin:round"
       id="ellipse1436"
       cx="117.3814"
       cy="276.73505"
       rx="5.2659755"
       ry="8.3538208" />
    <ellipse
       cy="277.00177"
       cx="117.28018"
       id="ellipse1438"
       style="fill:#000000;fill-opacity:1;stroke:#000000;stroke-width:0.162048;stroke-linecap:round;stroke-linejoin:round"
       rx="1.7598984"
       ry="3.0355682" />
    <ellipse
       ry="8.3538208"
       rx="5.2659755"
       cy="276.73505"
       cx="136.18571"
       id="ellipse1440"
       style="fill:#ffffff;stroke:none;stroke-width:0.46501;stroke-linecap:round;stroke-linejoin:round" />
    <ellipse
       ry="3.0355682"
       rx="1.7598984"
       style="fill:#000000;fill-opacity:1;stroke:#000000;stroke-width:0.162048;stroke-linecap:round;stroke-linejoin:round"
       id="ellipse1442"
       cx="136.08449"
       cy="277.00177" />
    <text
       xml:space="preserve"
       style="font-style:normal;font-variant:normal;font-weight:normal;font-stretch:normal;font-size:22.9904px;line-height:1.25;font-family:sans-serif;-inkscape-font-specification:'sans-serif, Normal';font-variant-ligatures:normal;font-variant-caps:normal;font-variant-numeric:normal;font-feature-settings:normal;text-align:center;letter-spacing:0px;word-spacing:0px;writing-mode:lr-tb;text-anchor:middle;fill:#000000;fill-opacity:1;stroke:none;stroke-width:0.979203"
       x="13.959292"
       y="285.81476"
       id="text1446"
       transform="matrix(0.99228411,-0.37029164,0.33010362,0.8845908,0,0)"><tspan
         sodipodi:role="line"
         id="tspan1444"
         x="13.959292"
         y="285.81476"
         style="stroke-width:0.979203">?</tspan></text>
    <text
       inkscape:transform-center-y="3.5907738"
       inkscape:transform-center-x="-0.56696429"
       transform="matrix(0.97008984,0.42505218,-0.37892097,0.86480528,0,0)"
       id="text1450"
       y="194.35698"
       x="222.38831"
       style="font-style:normal;font-variant:normal;font-weight:normal;font-stretch:normal;font-size:22.9904px;line-height:1.25;font-family:sans-serif;-inkscape-font-specification:'sans-serif, Normal';font-variant-ligatures:normal;font-variant-caps:normal;font-variant-numeric:normal;font-feature-settings:normal;text-align:center;letter-spacing:0px;word-spacing:0px;writing-mode:lr-tb;text-anchor:middle;fill:#000000;fill-opacity:1;stroke:none;stroke-width:0.979203"
       xml:space="preserve"><tspan
         style="stroke-width:0.979203"
         y="194.35698"
         x="222.38831"
         id="tspan1448"
         sodipodi:role="line">?</tspan></text>
    <text
       xml:space="preserve"
       style="font-style:normal;font-variant:normal;font-weight:normal;font-stretch:normal;font-size:22.9904px;line-height:1.25;font-family:sans-serif;-inkscape-font-specification:'sans-serif, Normal';font-variant-ligatures:normal;font-variant-caps:normal;font-variant-numeric:normal;font-feature-settings:normal;text-align:center;letter-spacing:0px;word-spacing:0px;writing-mode:lr-tb;text-anchor:middle;fill:#000000;fill-opacity:1;stroke:none;stroke-width:0.979203"
       x="-151.48232"
       y="255.63324"
       id="text1454"
       transform="matrix(0.62805899,-0.85281039,0.76025425,0.5598953,0,0)"
       inkscape:transform-center-x="-3.6275255"
       inkscape:transform-center-y="0.23690183"><tspan
         sodipodi:role="line"
         id="tspan1452"
         x="-151.48232"
         y="255.63324"
         style="stroke-width:0.979203">?</tspan></text>
    <text
       xml:space="preserve"
       style="font-style:normal;font-variant:normal;font-weight:normal;font-stretch:normal;font-size:22.9904px;line-height:1.25;font-family:sans-serif;-inkscape-font-specification:'sans-serif, Normal';font-variant-ligatures:normal;font-variant-caps:normal;font-variant-numeric:normal;font-feature-settings:normal;text-align:center;letter-spacing:0px;word-spacing:0px;writing-mode:lr-tb;text-anchor:middle;fill:#000000;fill-opacity:1;stroke:none;stroke-width:0.979203"
       x="212.45038"
       y="171.73589"
       id="text1458"
       transform="matrix(0.97008984,0.42505218,-0.37892097,0.86480528,0,0)"
       inkscape:transform-center-x="-0.56696429"
       inkscape:transform-center-y="3.5907738"><tspan
         sodipodi:role="line"
         id="tspan1456"
         x="212.45038"
         y="171.73589"
         style="stroke-width:0.979203">?</tspan></text>
    <text
       inkscape:transform-center-y="3.266654"
       inkscape:transform-center-x="1.5950095"
       transform="matrix(0.55089084,0.90457887,-0.80640428,0.49110224,0,0)"
       id="text1462"
       y="18.106663"
       x="301.27148"
       style="font-style:normal;font-variant:normal;font-weight:normal;font-stretch:normal;font-size:22.9904px;line-height:1.25;font-family:sans-serif;-inkscape-font-specification:'sans-serif, Normal';font-variant-ligatures:normal;font-variant-caps:normal;font-variant-numeric:normal;font-feature-settings:normal;text-align:center;letter-spacing:0px;word-spacing:0px;writing-mode:lr-tb;text-anchor:middle;fill:#000000;fill-opacity:1;stroke:none;stroke-width:0.979203"
       xml:space="preserve"><tspan
         style="stroke-width:0.979203"
         y="18.106663"
         x="301.27148"
         id="tspan1460"
         sodipodi:role="line">?</tspan></text>
  </g>
</svg>
