<?xml version="1.0" encoding="UTF-8" standalone="no"?>
<!-- Created with Inkscape (http://www.inkscape.org/) -->

<svg
   xmlns:dc="http://purl.org/dc/elements/1.1/"
   xmlns:cc="http://creativecommons.org/ns#"
   xmlns:rdf="http://www.w3.org/1999/02/22-rdf-syntax-ns#"
   xmlns:svg="http://www.w3.org/2000/svg"
   xmlns="http://www.w3.org/2000/svg"
   xmlns:sodipodi="http://sodipodi.sourceforge.net/DTD/sodipodi-0.dtd"
   xmlns:inkscape="http://www.inkscape.org/namespaces/inkscape"
   width="210mm"
   height="297mm"
   viewBox="0 0 210 297"
   version="1.1"
   id="svg8"
   inkscape:version="0.92.4 (5da689c313, 2019-01-14)"
   sodipodi:docname="snaky.svg">
  <defs
     id="defs2" />
  <sodipodi:namedview
     id="base"
     pagecolor="#ffffff"
     bordercolor="#666666"
     borderopacity="1.0"
     inkscape:pageopacity="0.0"
     inkscape:pageshadow="2"
     inkscape:zoom="1.979899"
     inkscape:cx="526.7863"
     inkscape:cy="940.81443"
     inkscape:document-units="mm"
     inkscape:current-layer="layer1"
     showgrid="false"
     inkscape:window-width="1920"
     inkscape:window-height="1017"
     inkscape:window-x="-8"
     inkscape:window-y="-8"
     inkscape:window-maximized="1" />
  <metadata
     id="metadata5">
    <rdf:RDF>
      <cc:Work
         rdf:about="">
        <dc:format>image/svg+xml</dc:format>
        <dc:type
           rdf:resource="http://purl.org/dc/dcmitype/StillImage" />
        <dc:title />
      </cc:Work>
    </rdf:RDF>
  </metadata>
  <g
     inkscape:label="Layer 1"
     inkscape:groupmode="layer"
     id="layer1">
    <rect
       style="fill:#ff8531;fill-opacity:1;stroke:none;stroke-width:0.37979427;stroke-linecap:round;stroke-miterlimit:4;stroke-dasharray:0.37979427, 0.75958854;stroke-dashoffset:0;stroke-opacity:1"
       id="rect851"
       width="37.856098"
       height="24.423351"
       x="56.307491"
       y="0.02288329"
       inkscape:export-filename="C:\Users\jriffet\Documents\Perso\Godot\lab\Assets\pattern_snake.png"
       inkscape:export-xdpi="81"
       inkscape:export-ydpi="81" />
    <rect
       style="fill:#f5fff5;fill-opacity:1;stroke:#ff0000;stroke-width:0.29962426;stroke-linecap:round;stroke-miterlimit:4;stroke-dasharray:0.29962427, 0.59924854;stroke-dashoffset:0;stroke-opacity:1"
       id="rect843"
       width="35.166218"
       height="24.648434"
       x="61.413914"
       y="27.430212"
       inkscape:export-filename="C:\Users\jriffet\Documents\Perso\Godot\lab\Assets\pattern_snake.png"
       inkscape:export-xdpi="81"
       inkscape:export-ydpi="81" />
    <g
       id="g4640"
       transform="matrix(0.58781493,0,0,0.78790583,131.92599,-102.34076)">
      <g
         id="g4655"
         transform="translate(0,4.7247024)">
        <circle
           transform="scale(1,-1)"
           r="8.5044641"
           cy="-164.38132"
           cx="38.931549"
           id="circle888"
           style="fill:#7ec1ff;fill-opacity:1;stroke:none;stroke-width:0.60000002;stroke-miterlimit:4;stroke-dasharray:none;stroke-dashoffset:0;stroke-opacity:1" />
        <circle
           transform="scale(1,-1)"
           r="6.2366071"
           style="fill:#000000;fill-opacity:1;stroke:none;stroke-width:3.19799995;stroke-miterlimit:4;stroke-dasharray:none;stroke-dashoffset:0;stroke-opacity:1"
           id="circle890"
           cx="40.443455"
           cy="-164.5703" />
        <path
           sodipodi:nodetypes="sssss"
           inkscape:connector-curvature="0"
           id="path892"
           d="m 49.703868,164.5703 c -3e-6,-6.26251 -5.076774,-11.33928 -11.339286,-11.33928 -6.262512,0 -10.90996,4.38811 -13.229167,10.20535 -3.049315,7.64857 4.484565,13.60144 13.229167,12.47322 6.211035,-0.80134 11.339288,-5.07677 11.339286,-11.33929 z"
           style="fill:none;fill-opacity:1;stroke:none;stroke-width:0.60000002;stroke-miterlimit:4;stroke-dasharray:none;stroke-dashoffset:0;stroke-opacity:1" />
      </g>
      <g
         id="g4665"
         transform="translate(0,-5.858631)">
        <g
           id="g886">
          <circle
             r="8.5044641"
             cy="195.89136"
             cx="38.931549"
             id="path875"
             style="fill:#7ec1ff;fill-opacity:1;stroke:none;stroke-width:0.60000002;stroke-miterlimit:4;stroke-dasharray:none;stroke-dashoffset:0;stroke-opacity:1" />
          <path
             sodipodi:nodetypes="sssss"
             inkscape:connector-curvature="0"
             id="circle829"
             d="m 49.703868,195.70238 c -3e-6,6.26251 -5.076774,11.33928 -11.339286,11.33928 -6.262512,0 -10.90996,-4.38811 -13.229167,-10.20535 -3.049315,-7.64857 4.484565,-13.60144 13.229167,-12.47322 6.211035,0.80134 11.339288,5.07677 11.339286,11.33929 z"
             style="fill:none;fill-opacity:1;stroke:none;stroke-width:0.60000002;stroke-miterlimit:4;stroke-dasharray:none;stroke-dashoffset:0;stroke-opacity:1" />
        </g>
        <g
           id="g4658">
          <circle
             r="6.2366071"
             style="fill:#000000;fill-opacity:1;stroke:none;stroke-width:3.19799995;stroke-miterlimit:4;stroke-dasharray:none;stroke-dashoffset:0;stroke-opacity:1"
             id="circle906"
             cx="40.577091"
             cy="-196.10811"
             transform="scale(1,-1)" />
        </g>
      </g>
      <path
         style="fill:#ff9955;fill-opacity:1;stroke:#ff9955;stroke-width:1.14536989;stroke-miterlimit:4;stroke-dasharray:none;stroke-dashoffset:0;stroke-opacity:1"
         d="m 222.4825,773.50075 c -9.47145,-7.68739 -18.76668,-17.1314 -23.96037,-24.34387 -16.78486,-23.30912 -13.53905,-46.03283 9.35674,-65.50586 2.47199,-2.10245 4.48733,-3.96316 4.47853,-4.13492 -0.009,-0.17176 -1.54297,-1.33376 -3.40926,-2.58224 -4.27359,-2.85886 -11.44547,-9.92424 -14.10189,-13.89248 -11.61625,-17.35275 -9.71743,-36.7571 5.59527,-57.17905 4.12577,-5.50238 12.76839,-14.5932 18.12098,-19.06073 l 2.90611,-2.42557 6.94288,0.85993 c 41.4794,5.13756 73.46991,16.10094 93.19977,31.94024 7.22876,5.80331 10.63011,12.0711 11.95878,22.03687 0.28971,2.17299 0.52674,11.91233 0.52674,21.643 0,13.38713 0.25661,20.9058 1.05461,30.89937 1.37003,17.15752 1.17009,31.41426 -0.52158,37.19014 -3.32965,11.36841 -10.99175,19.29239 -26.33745,27.23759 -13.99338,7.24504 -30.76516,12.70749 -51.97733,16.92863 -9.40499,1.87156 -25.30053,4.34663 -27.63691,4.30329 -0.97732,-0.0181 -2.86318,-1.2096 -6.19562,-3.91434 z m 11.92828,-25.08914 c 6.52891,-3.21956 12.33331,-11.05049 14.60955,-19.71032 1.10826,-4.21628 1.47862,-12.36254 0.76871,-16.90821 -1.71913,-11.00793 -7.66833,-20.16063 -15.52203,-23.88027 -3.14672,-1.49035 -3.89066,-1.63773 -8.25655,-1.63581 -4.22567,0.002 -5.14129,0.17034 -7.67323,1.41183 -6.59126,3.23193 -11.84378,9.94741 -14.67447,18.7617 -0.69732,2.17131 -1.05889,5.11622 -1.24713,10.15743 -0.22947,6.14525 -0.12075,7.6704 0.80879,11.34623 2.42367,9.58434 7.70008,17.06532 14.55198,20.63207 4.951,2.57722 11.18666,2.51176 16.63438,-0.17465 z m -1.09974,-78.48332 c 10.84737,-4.82505 17.56239,-17.98444 16.78747,-32.89834 -0.49026,-9.4354 -3.45839,-17.04526 -8.92948,-22.89386 -5.6322,-6.02085 -12.4923,-8.41098 -19.20507,-6.69125 -4.31123,1.10449 -7.20879,2.86011 -10.7353,6.5045 -5.76038,5.95293 -8.96225,14.91722 -8.94932,25.05544 0.0201,15.77023 7.20697,27.80042 18.93289,31.69205 2.95954,0.98222 9.02973,0.59663 12.09881,-0.76854 z"
         id="path4669"
         inkscape:connector-curvature="0"
         transform="matrix(0.35464691,0,0,0.26458333,-41.279916,0)" />
      <path
         style="fill:#ff8531;fill-opacity:1;stroke:none;stroke-width:0.35085291;stroke-miterlimit:4;stroke-dasharray:none;stroke-dashoffset:0;stroke-opacity:1"
         d="m 27.230952,154.10245 c 2.807764,0.079 6.200678,0.213 7.539811,0.2978 l 2.434786,0.15418 -2.808396,2.08546 c -4.706583,3.49501 -7.059871,6.20994 -8.294379,9.56901 -0.323066,0.87906 -0.39303,1.42535 -0.393637,3.0736 -0.0011,2.25023 0.264865,3.14309 1.469643,4.93873 1.197362,1.78459 3.772808,3.98037 6.023777,5.13578 l 0.855412,0.43908 -1.887243,1.33426 c -2.98839,2.11276 -4.893819,4.22242 -5.834715,6.46011 -0.492668,1.17169 -0.680376,3.56525 -0.374248,4.77224 1.058901,4.17499 4.896188,8.15101 12.073301,12.5098 0.868584,0.52751 1.513428,0.95956 1.43299,0.96012 -0.08044,5.3e-4 -0.831399,0.0608 -1.668802,0.13385 -2.986687,0.26058 -9.618208,0.53331 -12.976342,0.53367 -15.4136205,-3.11367 -8.171055,-7.49561 -19.5943016,-10.18952 -9.528122,-2.24699 -20.9585214,0.0824 -33.1704374,-0.2898 -31.100882,-0.94793 -63.322667,-11.8214 -63.906685,-15.52156 -0.583357,-3.69597 32.870641,-14.11196 63.272562,-15.35204 13.121526,-0.53522 22.7346555,1.1752 33.8951268,-1.37334 8.9557772,-2.83419 8.4189622,-9.36774 21.9117772,-9.67143 z"
         id="path4673"
         inkscape:connector-curvature="0"
         sodipodi:nodetypes="csccccsscsssccccsssscc" />
    </g>
    <ellipse
       style="fill:#000000;fill-opacity:1;stroke:none;stroke-width:0.47274354;stroke-miterlimit:4;stroke-dasharray:none;stroke-dashoffset:0;stroke-opacity:1"
       id="path908"
       cx="184.53583"
       cy="43.37484"
       rx="1.1167861"
       ry="0.96788138"
       inkscape:export-filename="C:\Users\jriffet\Documents\Perso\Godot\lab\Assets\head_snake.png"
       inkscape:export-xdpi="81"
       inkscape:export-ydpi="81" />
    <ellipse
       ry="0.96788138"
       rx="1.1167861"
       cy="37.125488"
       cx="184.40871"
       id="ellipse910"
       style="fill:#000000;fill-opacity:1;stroke:none;stroke-width:0.47274354;stroke-miterlimit:4;stroke-dasharray:none;stroke-dashoffset:0;stroke-opacity:1"
       inkscape:export-filename="C:\Users\jriffet\Documents\Perso\Godot\lab\Assets\head_snake.png"
       inkscape:export-xdpi="81"
       inkscape:export-ydpi="81" />
    <path
       style="fill:none;stroke:none;stroke-width:0.20846674px;stroke-linecap:butt;stroke-linejoin:miter;stroke-opacity:1"
       d="m 150.1425,18.83796 c 0,0 7.23053,-3.895935 10.93388,-3.511979 9.65439,1.000931 27.47898,8.376274 27.23803,26.001089 -0.21028,15.380932 -16.97072,23.734922 -26.66628,24.848862 -4.39738,0.50523 -10.2668,-5.7263 -10.2668,-5.7263"
       id="path4642"
       inkscape:connector-curvature="0"
       sodipodi:nodetypes="csssc"
       inkscape:export-filename="C:\Users\jriffet\Documents\Perso\Godot\lab\Assets\head_snake.png"
       inkscape:export-xdpi="81"
       inkscape:export-ydpi="81" />
    <path
       sodipodi:nodetypes="cscsc"
       inkscape:connector-curvature="0"
       id="path4644"
       d="m 144.15944,18.881673 c 0,0 21.35082,-0.592032 30.94282,7.55129 3.43303,2.91455 2.02235,7.245881 2.37534,12.825996 0.41658,6.697953 1.57341,11.158773 -2.70665,14.471453 -6.92662,5.36103 -22.12235,6.93503 -30.61151,6.81296"
       style="fill:none;stroke:none;stroke-width:0.20234093px;stroke-linecap:butt;stroke-linejoin:miter;stroke-opacity:1"
       inkscape:export-filename="C:\Users\jriffet\Documents\Perso\Godot\lab\Assets\head_snake.png"
       inkscape:export-xdpi="81"
       inkscape:export-ydpi="81" />
    <path
       style="fill:#ffeeaa;fill-opacity:1;stroke:#ffeeaa;stroke-width:0.4168022;stroke-miterlimit:4;stroke-dasharray:none;stroke-dashoffset:0;stroke-opacity:1"
       d="m 159.7787,64.580932 c -1.27251,-0.30856 -3.22968,-1.12532 -4.79197,-2.30479 -1.57191,-1.18674 -3.70913,-1.72641 -3.6054,-1.82651 0.0379,-0.0365 1.23185,-0.0808 2.17368,-0.17579 10.52541,-1.0608 18.91206,-3.82306 22.29097,-7.34184 2.09928,-2.18618 2.52853,-4.345 2.0499,-10.30934 -0.15762,-1.964154 -0.27136,-5.005033 -0.28406,-7.594147 -0.0225,-4.593228 -0.12271,-5.393443 -0.85552,-6.829765 -0.47633,-0.933699 -1.70887,-2.129316 -3.25899,-3.161352 -4.41657,-2.940478 -11.23432,-4.982635 -19.34669,-5.79502 -3.73378,-0.373904 -4.29026,0.134075 -2.49944,-0.688225 3.0911,-1.419356 6.33502,-2.834484 8.19242,-3.033395 1.82163,-0.195079 4.24242,-0.09774 7.67704,1.24522 3.7373,1.461308 5.30354,5.542712 7.93813,7.738777 4.21923,3.516932 11.07252,6.661301 12.2203,11.807246 0.46613,2.08985 0.50323,6.789461 0.0693,8.767581 -0.97645,4.4504 -6.04432,5.09743 -9.68998,8.51738 -1.87157,1.75568 -4.80979,7.40098 -7.33395,8.82281 -3.11342,1.25593 -8.18525,2.75879 -10.94566,2.16115 z m 25.64193,-20.54368 c 0.65814,-0.65813 0.1517,-1.63795 -0.84661,-1.63795 -0.35852,0 -0.66827,0.11226 -0.89342,0.32377 -0.71682,0.67343 -0.22389,1.612 0.84661,1.612 0.39708,0 0.69488,-0.0992 0.89342,-0.29782 z m 0.003,-6.408775 c 0.40705,-0.760556 -0.0971,-1.483175 -1.03466,-1.483175 -0.45443,0 -0.65363,0.08747 -0.89344,0.392343 -0.16973,0.215789 -0.30861,0.47478 -0.30861,0.575539 0,0.31632 0.58688,0.945598 0.93362,1.001061 0.47676,0.07625 1.13329,-0.168483 1.30309,-0.485768 z"
       id="path4675"
       inkscape:connector-curvature="0"
       sodipodi:nodetypes="cscssssssssssssssccccsccccscccc"
       inkscape:export-filename="C:\Users\jriffet\Documents\Perso\Godot\lab\Assets\head_snake.png"
       inkscape:export-xdpi="81"
       inkscape:export-ydpi="81" />
    <path
       style="fill:#ff8531;fill-opacity:1;stroke:#ff8531;stroke-width:0.4210338;stroke-miterlimit:4;stroke-dasharray:none;stroke-dashoffset:0;stroke-opacity:1"
       d="m 39.556538,51.623372 c -11.191373,-0.74138 -20.668079,-2.86335 -25.411009,-5.68986 -1.850545,-1.10284 -3.554538,-2.78438 -4.201104,-4.145785 -0.762709,-1.60595 -0.790094,-3.659949 -0.06929,-5.196768 2.235963,-4.767247 11.247311,-7.834485 25.680321,-8.740938 2.515039,-0.157954 15.687767,-0.211141 41.484904,-0.167502 l 41.19533,0.06395 -6.65969,1.131836 c -10.65223,1.810374 -15.992715,6.384869 -17.800845,8.75547 -0.86252,1.130824 -0.94991,2.546841 -0.23269,3.770682 1.46159,2.493995 7.204235,5.358345 17.770295,8.863565 2.34538,0.77806 6.46066,1.45415 6.46066,1.50243 0,0.1681 -75.603182,0.026 -78.216884,-0.14708 z"
       id="path4707"
       inkscape:connector-curvature="0"
       sodipodi:nodetypes="sssssscssssss" />
    <path
       style="fill:#ff2a2a;fill-opacity:1;stroke:#ff0000;stroke-width:0.07442896;stroke-miterlimit:4;stroke-dasharray:none;stroke-dashoffset:0;stroke-opacity:1"
       d="m 200.19946,43.814122 c -2.02282,-1.545345 -3.90531,-2.710122 -5.47225,-3.385897 -0.99702,-0.429983 -2.26156,-0.779861 -3.23869,-0.896093 -0.48667,-0.05789 -1.5814,-0.05665 -2.02882,0.0023 -0.19451,0.02563 -0.54528,0.08665 -0.77952,0.135601 -0.23422,0.04895 -0.42872,0.0852 -0.43223,0.08056 -0.003,-0.0047 -0.0166,-0.246668 -0.0294,-0.537836 l -0.023,-0.529392 0.3622,-0.113291 c 1.5029,-0.470045 3.28306,-0.543389 4.8852,-0.201276 1.6374,0.349639 3.35504,1.127163 5.3978,2.443402 0.8709,0.561158 3.00854,2.094742 2.97148,2.131812 -0.007,0.007 -0.43528,-0.0839 -0.95216,-0.20164 -0.51687,-0.1177 -0.93975,-0.19744 -0.93975,-0.17718 0,0.0203 0.18427,0.38617 0.40948,0.81314 0.22521,0.42698 0.40949,0.78442 0.40949,0.79432 0,0.0451 -0.0871,-0.0134 -0.53979,-0.35856 z"
       id="path4711"
       inkscape:connector-curvature="0"
       inkscape:export-filename="C:\Users\jriffet\Documents\Perso\Godot\lab\Assets\head_snake.png"
       inkscape:export-xdpi="81"
       inkscape:export-ydpi="81" />
    <path
       style="fill:none;stroke:#000000;stroke-width:0.76032907;stroke-linecap:round;stroke-linejoin:miter;stroke-miterlimit:4;stroke-dasharray:none;stroke-opacity:1"
       d="m 152.62055,22.795745 c -4.40101,3.613446 -7.53041,5.722914 -4.63282,11.582082"
       id="path4713"
       inkscape:connector-curvature="0"
       sodipodi:nodetypes="cc"
       inkscape:export-filename="C:\Users\jriffet\Documents\Perso\Godot\lab\Assets\head_snake.png"
       inkscape:export-xdpi="81"
       inkscape:export-ydpi="81" />
    <path
       sodipodi:nodetypes="cc"
       inkscape:connector-curvature="0"
       id="path4715"
       d="m 148.72476,42.169406 c -4.401,3.613446 -1.00234,6.249366 1.89526,12.108536"
       style="fill:none;stroke:#000000;stroke-width:0.76032907;stroke-linecap:round;stroke-linejoin:miter;stroke-miterlimit:4;stroke-dasharray:none;stroke-opacity:1"
       inkscape:export-filename="C:\Users\jriffet\Documents\Perso\Godot\lab\Assets\head_snake.png"
       inkscape:export-xdpi="81"
       inkscape:export-ydpi="81" />
    <path
       style="fill:#3183ff;fill-opacity:1;stroke:none;stroke-width:0.32981151px;stroke-linecap:butt;stroke-linejoin:miter;stroke-opacity:1"
       d="m 131.66752,27.32328 c -11.79735,4.546769 -10.95683,17.583122 -7.68472,24.384042 l -7.53873,0.59712 c -8.83175,-4.50532 -13.10497,-20.106412 6.08476,-24.491927 z"
       id="path4717"
       inkscape:connector-curvature="0"
       sodipodi:nodetypes="ccccc" />
    <path
       sodipodi:nodetypes="ccccc"
       inkscape:connector-curvature="0"
       id="path4721"
       d="m 97.237175,27.567898 c -11.79735,4.546769 -10.95682,17.637064 -7.68472,24.437984 h -7.53875 c -8.831738,-4.50532 -13.104956,-20.052469 6.08479,-24.437984 z"
       style="fill:#3183ff;fill-opacity:1;stroke:none;stroke-width:0.32981151px;stroke-linecap:butt;stroke-linejoin:miter;stroke-opacity:1" />
    <path
       style="fill:#3183ff;fill-opacity:1;stroke:none;stroke-width:0.32981151px;stroke-linecap:butt;stroke-linejoin:miter;stroke-opacity:1"
       d="M 61.508999,27.32328 C 49.711648,31.870049 50.55218,44.906402 53.824275,51.707322 l -7.538737,0.59712 C 37.453796,47.799122 33.180578,32.19803 52.37032,27.812515 Z"
       id="path4723"
       inkscape:connector-curvature="0"
       sodipodi:nodetypes="ccccc" />
    <path
       style="fill:#ffeeaa;fill-opacity:1;stroke:none;stroke-width:0.32981151px;stroke-linecap:butt;stroke-linejoin:miter;stroke-opacity:1"
       d="m 122.52883,27.812515 c -23.221485,7.600227 -10.3045,21.376207 -6.08476,24.491927 h -8.9498 c -8.831725,-4.50532 -13.104945,-20.369643 6.08479,-24.755158 z"
       id="path4725"
       inkscape:connector-curvature="0"
       sodipodi:nodetypes="ccccc" />
    <path
       sodipodi:nodetypes="ccccc"
       inkscape:connector-curvature="0"
       id="path4727"
       d="M 88.098495,27.567898 C 64.876999,35.168125 77.793986,48.890162 82.013705,52.005882 H 73.063924 C 64.232181,47.500562 59.958963,31.953413 79.148706,27.567898 Z"
       style="fill:#ffeeaa;fill-opacity:1;stroke:none;stroke-width:0.32981151px;stroke-linecap:butt;stroke-linejoin:miter;stroke-opacity:1" />
    <path
       style="fill:#ffeeaa;fill-opacity:1;stroke:none;stroke-width:0.32981151px;stroke-linecap:butt;stroke-linejoin:miter;stroke-opacity:1"
       d="M 52.37032,27.812515 C 29.148829,35.412742 42.065818,49.188722 46.285538,52.304442 H 37.33575 C 28.50401,47.799122 24.230794,31.934799 43.420533,27.549284 Z"
       id="path4729"
       inkscape:connector-curvature="0"
       sodipodi:nodetypes="ccccc" />
    <rect
       style="fill:none;fill-opacity:1;stroke:none;stroke-width:0.96499997;stroke-linecap:round;stroke-miterlimit:4;stroke-dasharray:none;stroke-dashoffset:0;stroke-opacity:1"
       id="rect4731"
       width="71.093704"
       height="51.983921"
       x="131.89751"
       y="13.96157"
       inkscape:export-filename="C:\Users\jriffet\Documents\Perso\Godot\lab\Assets\head_snake.png"
       inkscape:export-xdpi="81"
       inkscape:export-ydpi="81" />
    <path
       style="fill:#ffeeaa;fill-opacity:1;stroke:none;stroke-width:0.32981151px;stroke-linecap:butt;stroke-linejoin:miter;stroke-opacity:1"
       d="m 85.0561,0.02288329 c -8.855759,6.39751411 -8.496031,17.44685571 0,24.43798371 h -8.949785 c -8.831743,-4.50532 -9.300771,-19.6515644 0,-24.43798371 z"
       id="path849"
       inkscape:connector-curvature="0"
       sodipodi:nodetypes="ccccc" />
    <path
       sodipodi:nodetypes="ccccc"
       inkscape:connector-curvature="0"
       id="path853"
       d="m 94.005885,0.02288329 c -8.855759,6.39751411 -8.496031,17.44685571 0,24.43798371 H 85.0561 c -8.831743,-4.50532 -9.300771,-19.6515644 0,-24.43798371 z"
       style="fill:#3183ff;fill-opacity:1;stroke:none;stroke-width:0.32981151px;stroke-linecap:butt;stroke-linejoin:miter;stroke-opacity:1" />
  </g>
</svg>
